<?xml version="1.0" encoding="UTF-8"?>
<svg width="8.26016998px" height="8.68292222px" viewBox="0 0 8.26016998 8.68292222" version="1.1" xmlns="http://www.w3.org/2000/svg" xmlns:xlink="http://www.w3.org/1999/xlink">
    <title>Combined Shape</title>
    <g id="Page-1" stroke="none" stroke-width="1" fill="none" fill-rule="evenodd">
        <g id="8M-Portfolio-details-Completed-Copy-2" transform="translate(-182, -94)" fill="#C3220C">
            <g id="Group-4-Copy" transform="translate(0, 80)">
                <g id="Group-3" transform="translate(59, 9)">
                    <g id="Group-6" transform="translate(35, 0)">
                        <g id="Group-4" transform="translate(88, 2)">
                            <path d="M4.7808673,3.2407434 L7.91094322,5.92366562 C8.33026906,6.28308777 8.3788306,6.91438775 8.01940845,7.33371359 C7.82942625,7.55535949 7.55207673,7.68292222 7.26015185,7.68292222 L4.996,7.682 L4.99674259,10.9329222 C4.99674259,11.3471358 4.66095615,11.6829222 4.24674259,11.6829222 C3.83252903,11.6829222 3.49674259,11.3471358 3.49674259,10.9329222 L3.496,7.682 L1,7.68292222 C0.44771525,7.68292222 2.22044605e-16,7.23520697 0,6.68292222 C-2.22044605e-16,6.39099733 0.127562729,6.11364782 0.349208627,5.92366562 L3.47928455,3.2407434 C3.85377428,2.9197522 4.40637757,2.9197522 4.7808673,3.2407434 Z" id="Combined-Shape" transform="translate(4.1301, 7.3415) rotate(180) translate(-4.1301, -7.3415)"></path>
                        </g>
                    </g>
                </g>
            </g>
        </g>
    </g>
</svg>