<?xml version="1.0" encoding="UTF-8"?>
<svg width="7.82679331px" height="7.6485392px" viewBox="0 0 7.82679331 7.6485392" version="1.1" xmlns="http://www.w3.org/2000/svg" xmlns:xlink="http://www.w3.org/1999/xlink">
    <title>95235186-8FC2-461F-8506-FA56DBBA0990@1.5x</title>
    <g id="Page-1" stroke="none" stroke-width="1" fill="none" fill-rule="evenodd">
        <g id="Market-Roundup-Real-markets" transform="translate(-117.375, -687.3515)" fill="#C3220C">
            <g id="Group-10" transform="translate(20, 590)">
                <g id="coal-1st" transform="translate(21, 81)">
                    <path d="M80.9610659,16.6115207 L83.874459,19.2600599 C84.2831167,19.6315669 84.3132332,20.2640152 83.9417263,20.6726728 C83.7522041,20.8811472 83.4835312,21 83.2017863,21 L80.788,20.9994608 L80.7883931,23.5 C80.7883931,23.7761424 80.5645355,24 80.2883931,24 C80.0122508,24 79.7883931,23.7761424 79.7883931,23.5 L79.788,20.9994608 L77.375,21 C76.8227153,21 76.375,20.5522847 76.375,20 C76.375,19.718255 76.4938528,19.4495821 76.7023272,19.2600599 L79.6157203,16.6115207 C79.9971416,16.2647742 80.5796447,16.2647742 80.9610659,16.6115207 Z" id="Combined-Shape" transform="translate(80.2884, 20.1757) rotate(-180) translate(-80.2884, -20.1757)"></path>
                </g>
            </g>
        </g>
    </g>
</svg>