<?xml version="1.0" encoding="UTF-8"?>
<svg width="7.82679331px" height="7.6485392px" viewBox="0 0 7.82679331 7.6485392" version="1.1" xmlns="http://www.w3.org/2000/svg" xmlns:xlink="http://www.w3.org/1999/xlink">
    <title>68200B1A-826A-44DF-ABD5-852EA060DE0B@1.5x</title>
    <g id="Page-1" stroke="none" stroke-width="1" fill="none" fill-rule="evenodd">
        <g id="Market-Roundup-Real-markets" transform="translate(-117.375, -479.3515)" fill="#006C44">
            <g id="Group-10" transform="translate(20, 292)">
                <g id="coal-3rd" transform="translate(21, 173)">
                    <path d="M80.9610659,14.6115207 L83.874459,17.2600599 C84.2831167,17.6315669 84.3132332,18.2640152 83.9417263,18.6726728 C83.7522041,18.8811472 83.4835312,19 83.2017863,19 L80.788,18.9994608 L80.7883931,21.5 C80.7883931,21.7761424 80.5645355,22 80.2883931,22 C80.0122508,22 79.7883931,21.7761424 79.7883931,21.5 L79.788,18.9994608 L77.375,19 C76.8227153,19 76.375,18.5522847 76.375,18 C76.375,17.718255 76.4938528,17.4495821 76.7023272,17.2600599 L79.6157203,14.6115207 C79.9971416,14.2647742 80.5796447,14.2647742 80.9610659,14.6115207 Z" id="Combined-Shape"></path>
                </g>
            </g>
        </g>
    </g>
</svg>