<?xml version="1.0" encoding="UTF-8"?>
<svg width="308.13px" height="289px" viewBox="0 0 308.13 289" version="1.1" xmlns="http://www.w3.org/2000/svg" xmlns:xlink="http://www.w3.org/1999/xlink">
    <title>Scratch Card Blue 18pts@2x</title>
    <defs>
        <rect id="path-1" x="0" y="0" width="308.13" height="289"></rect>
    </defs>
    <g id="Page-1" stroke="none" stroke-width="1" fill="none" fill-rule="evenodd">
        <g id="Scratch-Card-Blue-18pts">
            <g id="Group-194">
                <g id="Group-193">
                    <mask id="mask-2" fill="white">
                        <use xlink:href="#path-1"></use>
                    </mask>
                    <rect stroke="#979797" x="0.5" y="0.5" width="307.13" height="288"></rect>
                    <g mask="url(#mask-2)" fill="#A2D7F7">
                        <g transform="translate(-18.5983, -33.3469)">
                            <path d="M121.420512,182.639174 C114.972494,182.639174 109.724226,188.071455 109.724226,194.751442 C109.724226,201.428786 114.972494,206.861067 121.420512,206.861067 C127.86853,206.861067 133.116799,201.428786 133.116799,194.751442 C133.116799,188.071455 127.86853,182.639174 121.420512,182.639174 M121.420512,212.052795 C112.207963,212.052795 104.713355,204.291638 104.713355,194.751442 C104.713355,185.211246 112.207963,177.447446 121.420512,177.447446 C130.633061,177.447446 138.12767,185.211246 138.12767,194.751442 C138.12767,204.291638 130.633061,212.052795 121.420512,212.052795" id="Fill-2"></path>
                            <path d="M252.097676,175.623072 C249.792624,175.623072 247.921524,177.563361 247.921524,179.947749 C247.921524,182.334781 249.792624,184.27507 252.097676,184.27507 C254.402727,184.27507 256.273827,182.334781 256.273827,179.947749 C256.273827,177.563361 254.402727,175.623072 252.097676,175.623072 M252.097676,186.003884 C248.873666,186.003884 246.249532,183.286421 246.249532,179.947749 C246.249532,176.609077 248.873666,173.891615 252.097676,173.891615 C255.321685,173.891615 257.945819,176.609077 257.945819,179.947749 C257.945819,183.286421 255.321685,186.003884 252.097676,186.003884" id="Fill-4"></path>
                            <path d="M192.127012,111.873072 C189.82196,111.873072 187.950861,113.813361 187.950861,116.197749 C187.950861,118.584781 189.82196,120.52507 192.127012,120.52507 C194.432064,120.52507 196.303163,118.584781 196.303163,116.197749 C196.303163,113.813361 194.432064,111.873072 192.127012,111.873072 M192.127012,122.253884 C188.903003,122.253884 186.278869,119.536421 186.278869,116.197749 C186.278869,112.859077 188.903003,110.141615 192.127012,110.141615 C195.351021,110.141615 197.975155,112.859077 197.975155,116.197749 C197.975155,119.536421 195.351021,122.253884 192.127012,122.253884" id="Fill-4"></path>
                            <path d="M241.757906,232.998072 C239.452854,232.998072 237.581755,234.938361 237.581755,237.322749 C237.581755,239.709781 239.452854,241.65007 241.757906,241.65007 C244.062958,241.65007 245.934057,239.709781 245.934057,237.322749 C245.934057,234.938361 244.062958,232.998072 241.757906,232.998072 M241.757906,243.378884 C238.533897,243.378884 235.909763,240.661421 235.909763,237.322749 C235.909763,233.984077 238.533897,231.266615 241.757906,231.266615 C244.981915,231.266615 247.606049,233.984077 247.606049,237.322749 C247.606049,240.661421 244.981915,243.378884 241.757906,243.378884" id="Fill-4"></path>
                            <path d="M41.1663757,230.873072 C38.861324,230.873072 36.9902244,232.813361 36.9902244,235.197749 C36.9902244,237.584781 38.861324,239.52507 41.1663757,239.52507 C43.4714273,239.52507 45.3425269,237.584781 45.3425269,235.197749 C45.3425269,232.813361 43.4714273,230.873072 41.1663757,230.873072 M41.1663757,241.253884 C37.9423665,241.253884 35.3182323,238.536421 35.3182323,235.197749 C35.3182323,231.859077 37.9423665,229.141615 41.1663757,229.141615 C44.3903848,229.141615 47.014519,231.859077 47.014519,235.197749 C47.014519,238.536421 44.3903848,241.253884 41.1663757,241.253884" id="Fill-4"></path>
                            <path d="M63.9138688,56.6230718 C61.6088171,56.6230718 59.7377176,58.5633611 59.7377176,60.9477492 C59.7377176,63.3347807 61.6088171,65.27507 63.9138688,65.27507 C66.2189205,65.27507 68.09002,63.3347807 68.09002,60.9477492 C68.09002,58.5633611 66.2189205,56.6230718 63.9138688,56.6230718 M63.9138688,67.0038835 C60.6898596,67.0038835 58.0657255,64.2864212 58.0657255,60.9477492 C58.0657255,57.6090771 60.6898596,54.8916148 63.9138688,54.8916148 C67.137878,54.8916148 69.7620121,57.6090771 69.7620121,60.9477492 C69.7620121,64.2864212 67.137878,67.0038835 63.9138688,67.0038835" id="Fill-4"></path>
                            <path d="M163.030529,88.0377818 C163.030529,91.8602045 160.038812,94.958323 156.347666,94.958323 C152.656521,94.958323 149.664803,91.8602045 149.664803,88.0377818 C149.664803,84.2153592 152.656521,81.1172407 156.347666,81.1172407 C160.038812,81.1172407 163.030529,84.2153592 163.030529,88.0377818" id="Fill-8"></path>
                            <path d="M216.390051,263.691055 C216.390051,266.55655 214.146263,268.882783 211.376627,268.882783 C208.609544,268.882783 206.365756,266.55655 206.365756,263.691055 C206.365756,260.82556 208.609544,258.499327 211.376627,258.499327 C214.146263,258.499327 216.390051,260.82556 216.390051,263.691055" id="Fill-10"></path>
                            <path d="M301.766051,171.418671 C301.766051,175.719558 298.399093,179.203619 294.248469,179.203619 C290.095291,179.203619 286.728333,175.719558 286.728333,171.418671 C286.728333,167.117785 290.095291,163.633723 294.248469,163.633723 C298.399093,163.633723 301.766051,167.117785 301.766051,171.418671" id="Fill-12"></path>
                            <path d="M132.19383,148.043671 C132.19383,152.344558 128.826872,155.828619 124.676247,155.828619 C120.52307,155.828619 117.156112,152.344558 117.156112,148.043671 C117.156112,143.742785 120.52307,140.258723 124.676247,140.258723 C128.826872,140.258723 132.19383,143.742785 132.19383,148.043671" id="Fill-12"></path>
                            <path d="M83.4291559,76.8449036 C83.4291559,78.2776512 82.3059856,79.4407674 80.9224441,79.4407674 C79.5389025,79.4407674 78.4157323,78.2776512 78.4157323,76.8449036 C78.4157323,75.412156 79.5389025,74.2490398 80.9224441,74.2490398 C82.3059856,74.2490398 83.4291559,75.412156 83.4291559,76.8449036" id="Fill-14"></path>
                            <path d="M259.205239,119.344904 C259.205239,120.777651 258.082069,121.940767 256.698527,121.940767 C255.314986,121.940767 254.191816,120.777651 254.191816,119.344904 C254.191816,117.912156 255.314986,116.74904 256.698527,116.74904 C258.082069,116.74904 259.205239,117.912156 259.205239,119.344904" id="Fill-14"></path>
                            <path d="M93.7689255,238.344904 C93.7689255,239.777651 92.6457552,240.940767 91.2622137,240.940767 C89.8786721,240.940767 88.7555019,239.777651 88.7555019,238.344904 C88.7555019,236.912156 89.8786721,235.74904 91.2622137,235.74904 C92.6457552,235.74904 93.7689255,236.912156 93.7689255,238.344904" id="Fill-14"></path>
                            <path d="M166.403359,200.94226 C166.403359,202.375008 165.280188,203.538124 163.896647,203.538124 C162.513105,203.538124 161.389935,202.375008 161.389935,200.94226 C161.389935,199.509513 162.513105,198.346396 163.896647,198.346396 C165.280188,198.346396 166.403359,199.509513 166.403359,200.94226" id="Fill-16"></path>
                            <path d="M282.708915,249.344282 C282.708915,251.733957 280.837816,253.668959 278.532764,253.668959 C276.22516,253.668959 274.35406,251.733957 274.35406,249.344282 C274.35406,246.954607 276.22516,245.019604 278.532764,245.019604 C280.837816,245.019604 282.708915,246.954607 282.708915,249.344282" id="Fill-18"></path>
                            <path d="M197.459782,179.948542 C197.459782,182.338217 195.588683,184.27322 193.283631,184.27322 C190.976027,184.27322 189.104927,182.338217 189.104927,179.948542 C189.104927,177.558867 190.976027,175.623865 193.283631,175.623865 C195.588683,175.623865 197.459782,177.558867 197.459782,179.948542" id="Fill-20"></path>
                            <polygon id="Fill-26" points="115.783562 76.0096408 111.015194 74.4103561 119.393023 47.5899549 96.48035 37.1404136 106.190667 12.0197481 78.8542349 5.04105116 80.0539849 0 112.985847 8.40880112 102.933474 34.4097341 125.555144 44.7297465"></polygon>
                            <polygon id="Fill-26" transform="translate(240.6973, 90.2529) rotate(-285) translate(-240.6973, -90.2529)" points="249.873965 114.157531 246.722037 113.133786 252.131978 96.3570909 236.974595 89.7046143 243.270728 73.9994012 225.210588 69.5031976 225.980141 66.3482571 247.736976 71.7658133 241.219035 88.0213537 256.183925 94.5913375"></polygon>
                            <polygon id="Fill-26" transform="translate(232.4254, 156.1279) rotate(-285) translate(-232.4254, -156.1279)" points="241.602149 180.032531 238.450221 179.008786 243.860163 162.232091 228.70278 155.579614 234.998913 139.874401 216.938772 135.378198 217.708325 132.223257 239.46516 137.640813 232.94722 153.896354 247.912109 160.466338"></polygon>
                            <polygon id="Fill-26" transform="translate(319.2721, 139.2471) rotate(-105) translate(-319.2721, -139.2471)" points="328.448804 163.151743 325.296876 162.127998 330.706818 145.351303 315.549435 138.698826 321.845567 122.993613 303.785427 118.49741 304.55498 115.342469 326.311815 120.760025 319.793874 137.015566 334.758764 143.58555"></polygon>
                            <polygon id="Fill-26" transform="translate(118.688, 249.6279) rotate(-285) translate(-118.688, -249.6279)" points="127.864684 273.532531 124.712756 272.508786 130.122697 255.732091 114.965314 249.079614 121.261447 233.374401 103.201306 228.878198 103.970859 225.723257 125.727695 231.140813 119.209754 247.396354 134.174644 253.966338"></polygon>
                            <polygon id="Fill-28" points="53.2197829 217.283117 39.3767095 187.11347 22.1743359 213.122333 16.660591 209.210033 40.4258526 173.277675 55.0066447 205.04925 70.350682 187.776975 84.3239411 211.821758 78.5983254 215.387766 69.2275118 199.26539"></polygon>
                            <path d="M255.017918,222.992563 L250.69116,220.375552 C259.564205,204.639119 279.822112,208.363734 280.679806,208.530271 L279.760849,213.634765 C279.57961,213.6004 262.101549,210.433552 255.017918,222.992563" id="Fill-30"></path>
                            <path d="M167.579369,164.784151 L162.879923,162.976034 C162.946292,162.79628 169.593417,144.992672 189.94322,147.271323 L189.404609,152.433972 C172.873585,150.59149 167.630422,164.641405 167.579369,164.784151" id="Fill-32"></path>
                            <path d="M18.6866867,158.409151 L13.9872402,156.601034 C14.0536094,156.42128 20.7007351,138.617672 41.0505381,140.896323 L40.5119269,146.058972 C23.9809028,144.21649 18.7377399,158.266405 18.6866867,158.409151" id="Fill-32"></path>
                            <path d="M140.421112,326.118671 L135.775272,324.175739 C137.883768,318.761962 138.077771,314.067202 136.34962,310.223632 C133.745907,304.439772 127.685893,302.338233 127.624629,302.317085 L129.176646,297.381772 C129.511045,297.49544 137.380894,300.22612 140.893354,308.032215 C143.23159,313.231873 143.073326,319.317085 140.421112,326.118671" id="Fill-34"></path>
                            <path d="M282.207828,114.187541 L282.868967,109.043395 C288.436318,109.809995 292.86263,108.84778 296.025375,106.1779 C300.770769,102.175723 301.281301,95.4904486 301.286407,95.421719 L306.287067,95.7627235 C306.266646,96.1248756 305.669323,104.694927 299.241726,110.161573 C294.958363,113.801598 289.227642,115.155042 282.207828,114.187541" id="Fill-37"></path>
                            <path d="M175.34152,290.624926 C153.965547,286.445638 148.857675,266.173052 148.65091,265.311289 L153.516279,264.058296 L151.083595,264.684792 L153.516279,264.053009 C153.692413,264.7826 158.113619,281.972928 176.270688,285.523076 L175.34152,290.624926 Z" id="Fill-39"></path>
                            <path d="M177.068637,95.8759952 C174.260711,97.8453623 206.110246,93.3382872 220.239217,54.07783 C221.405783,50.834322 206.883702,40.1733051 203.355926,44.5349907 C199.825598,48.8993197 210.008157,72.7775657 177.068637,95.8759952" id="Fill-41"></path>
                            <path d="M177.068637,95.8759952 C174.260711,97.8453623 206.110246,93.3382872 220.239217,54.07783 C221.405783,50.834322 206.883702,40.1733051 203.355926,44.5349907 C199.825598,48.8993197 210.008157,72.7775657 177.068637,95.8759952" id="Fill-41"></path>
                            <path d="M195.682605,219.264341 C193.864977,220.491597 214.636085,217.908911 223.528146,193.070848 C224.262306,191.018842 214.681529,184.110967 212.414256,186.852974 C210.145337,189.596639 217.005065,204.870079 195.682605,219.264341" id="Fill-41" transform="translate(209.5694, 202.8642) rotate(-315) translate(-209.5694, -202.8642)"></path>
                            <path d="M297.009964,210.625995 C294.202038,212.595362 326.051573,208.088287 340.180545,168.82783 C341.34711,165.584322 326.825029,154.923305 323.297253,159.284991 C319.766925,163.64932 329.949485,187.527566 297.009964,210.625995" id="Fill-41"></path>
                            <polygon id="Fill-45" points="183.896205 234.503448 187.755827 242.600323 196.383817 243.898255 190.140011 250.202873 191.615448 259.100711 183.896205 254.900276 176.176963 259.100711 177.6524 250.202873 171.408594 243.898255 180.036584 242.600323"></polygon>
                            <polygon id="Fill-47" points="267.747954 334.63744 262.979586 333.038155 271.357415 306.217754 248.444742 295.768213 258.155059 270.647547 230.818627 263.66885 232.018377 258.627799 264.950239 267.0366 254.897865 293.037533 277.519535 303.357545"></polygon>
                            <path d="M72.1171101,147.455306 C69.8120584,147.455306 67.9409589,149.395596 67.9409589,151.779984 C67.9409589,154.167015 69.8120584,156.107304 72.1171101,156.107304 C74.4221618,156.107304 76.2932613,154.167015 76.2932613,151.779984 C76.2932613,149.395596 74.4221618,147.455306 72.1171101,147.455306 M72.1171101,157.836118 C68.8931009,157.836118 66.2689668,155.118656 66.2689668,151.779984 C66.2689668,148.441312 68.8931009,145.723849 72.1171101,145.723849 C75.3411193,145.723849 77.9652534,148.441312 77.9652534,151.779984 C77.9652534,155.118656 75.3411193,157.836118 72.1171101,157.836118" id="Fill-52"></path>
                            <path d="M246.250043,21.1919103 C239.802024,21.1919103 234.553756,26.6241914 234.553756,33.304179 C234.553756,39.9815231 239.802024,45.4138042 246.250043,45.4138042 C252.698061,45.4138042 257.946329,39.9815231 257.946329,33.304179 C257.946329,26.6241914 252.698061,21.1919103 246.250043,21.1919103 M246.250043,50.6055318 C237.037494,50.6055318 229.542885,42.8443749 229.542885,33.304179 C229.542885,23.7639831 237.037494,16.0001827 246.250043,16.0001827 C255.462592,16.0001827 262.9572,23.7639831 262.9572,33.304179 C262.9572,42.8443749 255.462592,50.6055318 246.250043,50.6055318" id="Fill-49"></path>
                            <path d="M113.900992,95.5669103 C107.452974,95.5669103 102.204705,100.999191 102.204705,107.679179 C102.204705,114.356523 107.452974,119.788804 113.900992,119.788804 C120.34901,119.788804 125.597279,114.356523 125.597279,107.679179 C125.597279,100.999191 120.34901,95.5669103 113.900992,95.5669103 M113.900992,124.980532 C104.688443,124.980532 97.1938343,117.219375 97.1938343,107.679179 C97.1938343,98.1389831 104.688443,90.3751827 113.900992,90.3751827 C123.113541,90.3751827 130.608149,98.1389831 130.608149,107.679179 C130.608149,117.219375 123.113541,124.980532 113.900992,124.980532" id="Fill-49"></path>
                            <path d="M16.7071576,246.44191 C10.2591392,246.44191 5.01087095,251.874191 5.01087095,258.554179 C5.01087095,265.231523 10.2591392,270.663804 16.7071576,270.663804 C23.1551759,270.663804 28.4034442,265.231523 28.4034442,258.554179 C28.4034442,251.874191 23.1551759,246.44191 16.7071576,246.44191 M16.7071576,275.855532 C7.49460881,275.855532 0,268.094375 0,258.554179 C0,249.013983 7.49460881,241.250183 16.7071576,241.250183 C25.9197064,241.250183 33.4143152,249.013983 33.4143152,258.554179 C33.4143152,268.094375 25.9197064,275.855532 16.7071576,275.855532" id="Fill-49"></path>
                            <path d="M294.247447,73.5226209 C294.247447,77.8235072 290.880489,81.3075688 286.729865,81.3075688 C282.576687,81.3075688 279.209729,77.8235072 279.209729,73.5226209 C279.209729,69.2217346 282.576687,65.737673 286.729865,65.737673 C290.880489,65.737673 294.247447,69.2217346 294.247447,73.5226209" id="Fill-54"></path>
                            <path d="M307.134683,272.466634 C307.134683,276.289057 304.142966,279.387175 300.45182,279.387175 C296.760674,279.387175 293.768957,276.289057 293.768957,272.466634 C293.768957,268.644212 296.760674,265.546093 300.45182,265.546093 C304.142966,265.546093 307.134683,268.644212 307.134683,272.466634" id="Fill-56"></path>
                            <path d="M215.235882,305.882036 C215.235882,310.182923 211.868924,313.666984 207.718299,313.666984 C203.565122,313.666984 200.198164,310.182923 200.198164,305.882036 C200.198164,301.58115 203.565122,298.097088 207.718299,298.097088 C211.868924,298.097088 215.235882,301.58115 215.235882,305.882036" id="Fill-58"></path>
                            <polygon id="Fill-60" points="341.068032 254.269352 324.000949 235.781092 306.614784 245.580345 304.220389 241.020401 324.973512 229.323153 341.27735 246.984015 368.366174 220.922283 371.776528 224.726201"></polygon>
                            <polygon id="Fill-63" points="37.8754124 353.682145 35.6673617 328.061868 60.2852117 328.030147 52.7191284 300.400851 81.0051502 298.711689 73.303776 278.322792 79.5271603 275.803588 90.5878347 305.07182 61.4211452 306.811207 69.1250721 334.937471 42.9730737 334.974479 44.5327488 353.066222"></polygon>
                            <path d="M151.491487,49.2251244 L150.036471,44.2580897 C155.409819,42.5689278 159.052465,39.7933097 160.864853,36.0078954 C163.583436,30.3297738 161.372832,24.0251555 161.349858,23.9617128 L166.039094,22.124518 C166.164174,22.4655225 169.04868,30.5227453 165.385613,38.2521808 C162.942718,43.4042567 158.268798,47.0945071 151.491487,49.2251244" id="Fill-78"></path>
                            <path d="M49.9326451,267.35725 L45.2331986,265.549133 C45.2995678,265.369379 51.9466936,247.565771 72.2964965,249.844422 L71.7578853,255.007071 C55.2268612,253.164589 49.9836983,267.214504 49.9326451,267.35725" id="Fill-69"></path>
                            <polygon id="Fill-71" points="49.0316785 80.5045561 55.0789293 93.1930959 68.6003676 95.2259058 58.8160231 105.101819 61.1261801 119.048639 49.0316785 112.463816 36.937177 119.048639 39.247334 105.101819 29.4629894 95.2259058 42.9844277 93.1930959"></polygon>
                        </g>
                    </g>
                </g>
                <g id="Group-82" transform="translate(0, 98)" fill="#A2D7F7">
                    <rect id="Rectangle" x="0" y="0" width="308.125" height="91.375"></rect>
                </g>
            </g>
            <text id="Scratch-Here" font-family="Montserrat-Bold, Montserrat" font-size="18" font-weight="bold" fill="#000000">
                <tspan x="93.498" y="149">Scratch Here</tspan>
            </text>
        </g>
    </g>
</svg>