<?xml version="1.0" encoding="UTF-8"?>
<svg width="21px" height="21px" viewBox="0 0 21 21" version="1.1" xmlns="http://www.w3.org/2000/svg" xmlns:xlink="http://www.w3.org/1999/xlink">
    <title>Group 9 Copy@2x</title>
    <g id="Page-1" stroke="none" stroke-width="1" fill="none" fill-rule="evenodd">
        <g id="11B-3-Recent-transactions-Copy" transform="translate(-48, -393)">
            <g id="Group-9-Copy" transform="translate(48, 393)">
                <rect id="Rectangle" fill="#000000" x="0" y="0" width="21" height="21" rx="10.5"></rect>
                <g id="file-2" transform="translate(6, 5)" fill="#FFFFFF" fill-rule="nonzero">
                    <g id="file">
                        <path d="M8.5170833,9.04830934 L0.487808616,9.04830934 C0.2195601,9.04830934 0,9.26559449 0,9.53140258 C0,9.79705809 0.2195601,10.0144959 0.487808616,10.0144959 L8.52201377,10.0144959 C8.79026233,10.0144959 9.00982243,9.79705809 9.00982243,9.53140258 C9.00982243,9.26559449 8.79026233,9.04830934 8.5170833,9.04830934 Z" id="Path"></path>
                        <path d="M4.14637342,7.31399535 C4.23912791,7.41058348 4.36593352,7.46856691 4.50244596,7.46856691 C4.63911251,7.46856691 4.76591811,7.41058348 4.85851854,7.31399535 L7.71711411,4.27536012 C7.90246908,4.08203125 7.88783177,3.77288816 7.69276992,3.59420777 C7.49755401,3.41064453 7.18539348,3.42498777 7.00496899,3.61831664 L4.99025461,5.75836184 L4.99025461,0.483093242 C4.99025461,0.217285156 4.77069451,0 4.50244596,0 C4.23419744,0 4.01463734,0.217285156 4.01463734,0.483093242 L4.01463734,5.75836184 L2.00485343,3.61831664 C1.81949847,3.42514039 1.51211431,3.41064453 1.3170525,3.59420777 C1.1219907,3.77777098 1.10735335,4.08218383 1.29270827,4.27536012 L4.14637342,7.31399535 Z" id="Path"></path>
                    </g>
                </g>
            </g>
        </g>
    </g>
</svg>