<?xml version="1.0" encoding="UTF-8"?>
<svg width="18px" height="15px" viewBox="0 0 18 15" version="1.1" xmlns="http://www.w3.org/2000/svg" xmlns:xlink="http://www.w3.org/1999/xlink">
    <title>49C49A91-F2B0-41F4-A513-2986C140BE0F</title>
    <g id="Page-1" stroke="none" stroke-width="1" fill="none" fill-rule="evenodd">
        <g id="Scratch-Card--3" transform="translate(-237.2962, -327.99)" fill="#000000" fill-rule="nonzero">
            <g id="Group-184" transform="translate(174, 267)">
                <g id="Group-82" transform="translate(-0.7038, 46.6185)">
                    <path d="M81.3955407,14.6666792 C80.7461777,14.1590642 79.8428642,14.3223109 79.3780608,15.0314533 L72.2506409,25.9024652 C72.0560131,26.1489171 71.8120583,26.2021462 71.681389,26.2116373 C71.5468807,26.2216821 71.2856868,26.2026208 71.0617236,25.9698519 L66.447516,21.1319285 C65.8713829,20.5278208 64.9559005,20.5483058 64.4030185,21.1772485 C63.8498467,21.8061911 63.868462,22.8057608 64.4444502,23.4097103 L69.0632935,28.2523792 C69.7550299,28.9714081 70.6784074,29.3714575 71.6284404,29.3714575 C71.7100725,29.3714575 71.7919219,29.368531 71.8737714,29.36252 C72.9086959,29.2872241 73.8749538,28.7376901 74.5247514,27.8548609 C74.5416284,27.8320032 74.5577085,27.8086709 74.5734265,27.7848641 L81.7297472,16.8696396 C82.1944781,16.1605763 82.0449762,15.1742941 81.3955407,14.6666792 Z" id="Path"></path>
                </g>
            </g>
        </g>
    </g>
</svg>