<?xml version="1.0" encoding="UTF-8"?>
<svg width="28.1516945px" height="28px" viewBox="0 0 28.1516945 28" version="1.1" xmlns="http://www.w3.org/2000/svg" xmlns:xlink="http://www.w3.org/1999/xlink">
    <title>Group 190</title>
    <defs>
        <filter x="-6.2%" y="-6.2%" width="112.5%" height="112.5%" filterUnits="objectBoundingBox" id="filter-1">
            <feOffset dx="0" dy="0" in="SourceAlpha" result="shadowOffsetOuter1"></feOffset>
            <feGaussianBlur stdDeviation="0.5" in="shadowOffsetOuter1" result="shadowBlurOuter1"></feGaussianBlur>
            <feColorMatrix values="0 0 0 0 1   0 0 0 0 1   0 0 0 0 1  0 0 0 0.5 0" type="matrix" in="shadowBlurOuter1" result="shadowMatrixOuter1"></feColorMatrix>
            <feMerge>
                <feMergeNode in="shadowMatrixOuter1"></feMergeNode>
                <feMergeNode in="SourceGraphic"></feMergeNode>
            </feMerge>
        </filter>
    </defs>
    <g id="Page-1" stroke="none" stroke-width="1" fill="none" fill-rule="evenodd">
        <g id="Level-Progress-1-Copy-2" transform="translate(-66, -548)">
            <g id="Group-189" transform="translate(66, 548)">
                <circle id="Oval" fill="#D2FF40" cx="14" cy="14" r="14"></circle>
                <polygon id="Path-7" fill="#D2FF40" transform="translate(21.1517, 14) scale(1, -1) translate(-21.1517, -14)" points="14.1516945 0 28.1516945 28 14.1516945 28"></polygon>
                <g id="Dodo_Avatar-2" filter="url(#filter-1)" transform="translate(2, 2)" fill-rule="nonzero">
                    <g id="Dodo-Progress">
                        <g id="Group" transform="translate(0, 0.9007)" fill="#D2FF40">
                            <path d="M12.002409,0 C10.5047483,0.0021044319 9.01254554,0.269367283 7.61749423,0.799684121 C6.27483922,1.31000886 5.03151885,2.05497775 3.96066961,2.9882933 C2.89200355,3.91845219 1.99799179,5.03485332 1.33648859,6.26699819 C0.658611551,7.52965733 0.228525312,8.90911244 0.0691532538,10.3211862 C-0.129516024,12.0973268 0.100809348,13.9145037 0.748121886,15.5896315 C0.827807915,15.7958658 0.91404348,15.9989435 1.0046454,16.200969 C1.01119494,16.2157 1.03520991,16.2241177 1.05049216,16.2188566 C1.83643656,15.9442283 2.67368566,15.8021791 3.50984317,15.8148057 C4.36346611,15.8274323 5.20617316,15.9757948 6.03687272,16.1567759 C6.46040943,16.2493709 6.88285454,16.3461748 7.30420806,16.4450831 C7.64805874,16.5250515 7.98754305,16.6229076 8.33576008,16.6839361 C8.88046322,16.7796877 9.43717383,16.7744267 9.91310683,16.4703363 C10.5702437,16.0505021 10.8802551,15.2992199 11.0581841,14.5879219 C11.0418103,14.5973919 11.0243449,14.6058096 11.007971,14.6152795 C11.007971,14.6152795 11.0090626,14.6152795 11.0090626,14.6152795 C11.0298028,14.6205406 11.0549094,14.6089662 11.0592757,14.5879219 C11.1062141,14.3922098 11.1422365,14.1943932 11.1684347,13.9955243 C11.1706179,13.9786889 11.154244,13.9618534 11.1378702,13.9576446 C11.1378702,13.9576446 11.1367786,13.9576446 11.1367786,13.9576446 C11.1466029,13.9702712 11.1564272,13.9828977 11.1673431,13.9955243 C11.2284721,13.5030873 11.239388,12.9790837 11.0887487,12.5003255 C11.0330776,12.3214488 10.9501168,12.1457287 10.8224008,12.0047318 C10.7590886,11.9352855 10.7296157,11.9110845 10.6368306,11.903719 C10.5364044,11.8963535 10.4359782,11.8868836 10.3355519,11.8763614 C9.61946927,11.7984974 8.90666136,11.6238296 8.25825723,11.3176347 C7.22452203,10.8283543 6.39273088,9.99605152 6.00521663,8.94278335 C5.65590801,7.99473678 5.67555662,6.93725975 6.04123908,5.99657869 C6.41674585,5.03064445 7.15902667,4.22149039 8.12071696,3.76588088 C8.66323692,3.50914019 9.25924475,3.37024768 9.86180212,3.33447234 C10.2613239,3.31027138 10.6619372,3.32710683 11.0549094,3.40181416 C11.5439414,3.49335695 12.0165997,3.6480327 12.4914411,3.78902963 C13.331965,4.03945703 14.2871057,4.29198886 15.1178053,3.87320691 C15.2258726,3.81849168 15.3273904,3.75535872 15.4234503,3.68380804 C15.4769382,3.64382383 15.6897981,3.41549297 15.7552935,3.43443286 C15.8393459,3.45968604 15.7934991,3.65329378 15.7880412,3.71958338 C15.7705758,3.94580981 15.767301,4.17414067 15.7956823,4.4003671 C15.8764599,5.02959224 16.2203106,5.56937902 16.7944867,5.88925267 C16.8905465,5.94291568 16.9898812,5.98921318 17.091399,6.0302496 C17.1776346,6.06497273 17.3828534,6.09548699 17.415601,6.18387313 C17.4658142,6.31540013 17.280244,6.31224348 17.1961916,6.33013115 C17.1175971,6.3469666 17.0422775,6.37116757 16.9680494,6.40062962 C16.6711371,6.52058224 16.432079,6.73628651 16.2497835,6.98776612 C15.8753683,7.50335193 15.7203626,8.13152485 15.5566242,8.73023573 C15.4660223,9.06063154 15.3415811,9.36787859 15.1560109,9.66144684 C15.0130127,9.88662106 14.8427247,10.0949598 14.6484218,10.281202 C14.5665526,10.3601182 14.5600031,10.4200945 14.5425376,10.5316294 C14.5272554,10.6273811 14.5174311,10.7231327 14.5119731,10.8188844 C14.4301039,12.3751118 15.5871887,13.706165 16.6383894,14.7594331 C17.1787261,15.3002721 17.6830405,15.860051 18.1065772,16.493485 C18.67857,17.3499888 19.0966488,18.3064531 19.2603872,19.3155282 C19.3313405,19.7553544 19.3509891,20.2004418 19.324791,20.6444769 C19.3226078,20.6823567 19.3695461,20.6918266 19.3946527,20.6728868 C21.0222126,19.4386374 22.3102881,17.8087549 23.1005989,15.9631682 C23.8996423,14.0965371 24.1714481,12.0331416 23.895276,10.0328791 C23.6518515,8.27146958 22.980524,6.57424525 21.9467888,5.10324735 C20.9294275,3.65434599 19.5736734,2.43272327 18.0050593,1.55517517 C16.4015145,0.656582752 14.584018,0.128370346 12.7294076,0.021044319 C12.4870747,0.00736551164 12.2447419,0 12.002409,0 C11.9500127,0 11.9500127,0.0789161962 12.002409,0.0789161962 C13.8723017,0.082072844 15.7290954,0.505063656 17.397044,1.32368766 C19.0071385,2.11495406 20.4251131,3.26081723 21.5145194,4.6507945 C22.6104752,6.04813728 23.3680383,7.68328086 23.7107974,9.40365394 C24.0961284,11.3386791 23.9553134,13.3641948 23.3025429,15.2308259 C22.6421313,17.1195535 21.4632147,18.8262478 19.9197072,20.1509876 C19.7319538,20.3119767 19.5387425,20.4677046 19.3411648,20.6171193 C19.3640882,20.6265893 19.3881032,20.6360592 19.4110265,20.6455291 C19.4677892,19.7069525 19.3029592,18.7683759 18.9492842,17.89188 C18.5519457,16.9070059 17.9351976,16.0526065 17.2343972,15.2466091 C16.8479745,14.802574 16.3960565,14.4122019 16.0074507,13.9681667 C15.4605644,13.3431505 14.9649828,12.639218 14.7281078,11.8458472 C14.6036667,11.4270652 14.5578199,10.9851345 14.6244068,10.5516215 C14.6309564,10.5074285 14.6331396,10.4537655 14.6495134,10.4116768 C14.6757116,10.3485439 14.7532144,10.2938286 14.8001527,10.2443745 C14.882022,10.1601972 14.9584332,10.0707588 15.0315697,9.97921606 C15.1963997,9.76877287 15.3361232,9.54044201 15.4474653,9.29948456 C15.6952561,8.76390664 15.7662094,8.1673002 15.9954432,7.62330455 C16.1275255,7.30869198 16.3021798,6.99934049 16.5565202,6.76048747 C16.6820529,6.6436915 16.8261428,6.5447832 16.9866064,6.4784936 C17.0662924,6.44482269 17.1503448,6.41956951 17.2354888,6.40168183 C17.3031673,6.38695081 17.402502,6.39536854 17.458173,6.35012325 C17.5444086,6.27962478 17.5138441,6.11653131 17.4243338,6.06181608 C17.3326403,6.00604864 17.2005579,5.98710875 17.1001317,5.94502011 C16.9887896,5.89872261 16.8818138,5.84611181 16.7792044,5.78403107 C16.4670098,5.59778885 16.2126695,5.33368265 16.0576638,5.01170457 C15.8360711,4.55083398 15.8502618,4.06050135 15.8851927,3.56701207 C15.8928338,3.46284269 15.871002,3.33657677 15.730187,3.35551666 C15.6341271,3.36814325 15.5762728,3.45337274 15.5085943,3.51229684 C15.4070765,3.59963076 15.2979175,3.67854696 15.1811175,3.74694099 C14.7586724,3.99105509 14.2718235,4.04997919 13.7882493,3.99947282 C12.7883534,3.89530344 11.8714183,3.43443286 10.8791635,3.28922706 C10.2165687,3.19137097 9.51467668,3.23872069 8.86845573,3.40917968 C7.8074308,3.6880169 6.89049567,4.34880852 6.32177757,5.25687088 C5.78689874,6.11232245 5.5740388,7.14244186 5.71703702,8.13047264 C5.86985954,9.18163637 6.43421128,10.1465184 7.2900174,10.8146755 C7.77904947,11.1966299 8.34558439,11.4775716 8.94268381,11.6669704 C9.29854197,11.7795576 9.66422443,11.8605782 10.0342733,11.9142412 C10.2231182,11.9415988 10.4130548,11.9626431 10.6029914,11.9773741 C10.8114849,11.9931574 10.9261018,12.2793601 10.9861392,12.4477147 C11.1629767,12.9369951 11.1487861,13.4851996 11.0854739,13.9923677 C11.0832907,14.0092031 11.0996645,14.0260386 11.1160384,14.0302475 C11.1160384,14.0302475 11.11713,14.0302475 11.11713,14.0302475 C11.1073057,14.0176209 11.0974814,14.0049943 11.0865655,13.9923677 C11.0614589,14.1849232 11.0254365,14.3753743 10.9795897,14.563721 C10.9959636,14.554251 11.013429,14.5458333 11.0298028,14.5363633 C11.0298028,14.5363633 11.0287112,14.5363633 11.0287112,14.5363633 C11.007971,14.5311023 10.9839561,14.5426766 10.9784981,14.563721 C10.8114849,15.2308259 10.5298549,15.9410716 9.93275544,16.3577491 C9.42734952,16.7102415 8.82915851,16.6986671 8.24297498,16.5829234 C7.89912431,16.5155815 7.56291476,16.4198299 7.22233886,16.3419659 C6.81735917,16.2504231 6.41347108,16.1546715 6.00739981,16.0662853 C5.22036382,15.8958263 4.42241194,15.7590383 3.61463576,15.7348373 C2.73699785,15.7095841 1.8528104,15.8505811 1.02756878,16.1399404 C1.04285103,16.1462537 1.05813329,16.1515148 1.07341554,16.1578281 C0.316944057,14.4837525 -0.017082312,12.6497401 0.102992526,10.8273021 C0.195777629,9.41101945 0.56473486,8.01262445 1.18803243,6.72576435 C1.79277298,5.48625396 2.62674731,4.34986073 3.6408339,3.38708314 C4.65492049,2.42325333 5.84693616,1.6361958 7.14701918,1.0753647 C8.4994985,0.491384848 9.96550312,0.156780176 11.4456984,0.0915427876 C11.6312686,0.08312506 11.8168388,0.0799684121 12.002409,0.0789161962 C12.0548053,0.0789161962 12.0548053,0 12.002409,0 Z" id="Path"></path>
                        </g>
                        <path d="M16.2596078,6.86992435 C16.2050284,6.64369792 16.3425686,6.41641927 16.5641613,6.32382427 C16.6809614,6.27437012 16.8086773,6.24490807 16.9145615,6.23754256 C17.133971,6.22175932 17.3511973,6.2796312 17.5564161,6.35539075 C17.7911078,6.44167246 18.0159752,6.55320735 18.2255604,6.68789099 C18.4089474,6.80468696 18.5846933,6.94147503 18.7931869,7.00671242 C19.0027721,7.07194981 19.2614788,7.04880106 19.4012022,6.88465537 C19.2494713,7.12350839 19.0726338,7.38024908 18.7942785,7.4602175 C18.5574036,7.52755932 18.3019717,7.4475909 18.0771042,7.34763039 C17.8522368,7.24766987 17.6295526,7.12561282 17.3828534,7.10456851 C17.1994663,7.08878527 17.0171709,7.12982169 16.8337839,7.13929163 C16.6503969,7.14876158 16.4495444,7.12035174 16.3218284,6.99408583 C16.2912639,6.96146714 16.2705237,6.91727407 16.2596078,6.86992435 Z" id="Path" fill="#8724FF"></path>
                        <g id="Group" transform="translate(0.5542, 0.7208)" fill="#8724FF">
                            <path d="M4.32340756,6.03445847 C4.33432345,6.03761512 4.34523935,6.03761512 4.35615524,6.0365629 C4.37689544,6.03340625 4.39436087,6.02077966 4.40636835,6.00289199 C4.4118263,5.99447426 4.41619266,5.9839521 4.41946743,5.97342994 C5.03949023,5.74299465 5.56126998,5.35367475 6.04593569,4.92226621 C6.33629848,4.66342109 6.61465379,4.38879272 6.89191751,4.12468652 C7.14734944,3.89530344 7.41042249,3.67328588 7.68441144,3.46599934 C7.77610496,3.39655308 7.86889006,3.32921126 7.96385834,3.26397387 C8.02826212,3.21872859 8.09266589,3.1734833 8.15925285,3.13034245 C8.24439683,3.06615728 8.32844921,2.99986767 8.41141001,2.93357807 C8.66138399,2.73260482 8.90699162,2.52637049 9.1875301,2.36748589 C9.2082703,2.35065043 9.23665163,2.33381498 9.26830772,2.31803174 C9.28904792,2.30750958 9.3119713,2.2959352 9.33380309,2.28436083 C9.35563488,2.27278645 9.37855825,2.26121207 9.40039004,2.2496377 C9.43204614,2.23175003 9.46151905,2.21175792 9.48335084,2.18966139 L9.48662561,2.18545253 C9.51391535,2.1570427 9.53028919,2.124424 9.52483124,2.08654423 C9.52264806,2.06655212 9.51391535,2.04550781 9.49863309,2.02130684 C9.46916018,1.98447928 9.41130594,1.9592261 9.36764236,1.98868814 C9.18425533,2.12652843 8.97248698,2.22543673 8.78800837,2.36222481 C8.38521186,2.67262851 7.99769761,2.99986767 7.56542819,3.2723916 C7.42679634,3.38603092 7.28925607,3.50177468 7.15389898,3.61857065 C6.88318479,3.85321481 6.61792856,4.09417226 6.35813027,4.34039079 C6.22823113,4.46350006 6.09942358,4.58766154 5.9727992,4.71392745 C5.87673933,4.79915694 5.77849628,4.882282 5.67807005,4.96330263 C5.4772176,5.12534389 5.26872401,5.27896742 5.05149771,5.41996435 C4.94343036,5.49046282 4.83208824,5.55780464 4.71965452,5.62198982 C4.63778532,5.66407845 4.55154975,5.69774936 4.46531418,5.73247249 C4.40964312,5.75456903 4.35288047,5.77771778 4.29939259,5.80402318 C4.27974398,5.8187542 4.26446173,5.83769409 4.25572901,5.85979062 C4.2262561,5.92608023 4.24590471,6.01130972 4.32340756,6.03445847 Z" id="Path"></path>
                            <path d="M0.920923272,9.97395498 C0.776833466,9.88767327 0.633835249,9.78771276 0.49520339,9.671969 C0.621827765,9.7971827 0.765917571,9.89503879 0.920923272,9.97395498 Z" id="Path"></path>
                            <path d="M14.2110247,4.35722625 C14.5799819,4.1299476 14.9238326,3.86268475 15.2294777,3.5628032 C15.4390628,3.36077774 15.6388237,3.08404495 15.8036537,2.77048459 C15.4739937,3.31342802 14.8790774,3.8595281 14.2110247,4.35722625 Z" id="Path"></path>
                            <path d="M4.91177427,9.87294225 C4.93469764,9.86136787 5.03621546,9.80244378 5.19886229,9.70669213 C5.05913884,9.78455611 4.85937797,9.88662106 4.61377035,9.99079044 C4.71419658,9.95606731 4.81353122,9.91713532 4.91177427,9.87294225 Z" id="Path"></path>
                            <path d="M16.1627866,0.832302816 C16.0896501,0.50401144 15.9259117,0.212547622 15.6399153,0 C15.6399153,0 15.9990482,0.28830717 16.1627866,0.832302816 Z" id="Path"></path>
                            <path d="M10.6142375,6.47638917 L5.42045494,9.57516514 C6.4170761,8.98381977 8.68539896,7.62751341 10.6142375,6.47638917 Z" id="Path"></path>
                            <path d="M16.1627866,0.832302816 C15.9990482,0.28830717 15.6399153,0 15.6399153,0 C12.1118982,0.253584044 9.31742925,5.17269361 6.59391359,6.89201447 C3.87585589,8.60817868 0.0301862885,8.51558368 0.0159956258,8.51558368 L0.0149040363,8.51558368 C-0.100804444,9.24161268 0.49520339,9.671969 0.49520339,9.671969 C0.634926838,9.78771276 0.776833466,9.88767327 0.920923272,9.97395498 C2.23628855,10.7599603 3.72085019,10.3695882 4.61377035,9.99079044 C4.85937797,9.88662106 5.05913884,9.78455611 5.19886229,9.70669213 C5.34076892,9.62777593 5.42045494,9.57516514 5.42045494,9.57516514 L5.42045494,9.57516514 L10.6142375,6.47638917 L10.7965329,6.36801092 C10.7965329,6.36801092 12.6926238,5.48941061 14.2110247,4.35827846 C14.8790774,3.86058032 15.4739937,3.31342802 15.8036537,2.77153681 L15.8047453,2.76943238 C16.3003269,1.94870394 16.3036017,1.29738227 16.1627866,0.832302816 Z" id="Path"></path>
                        </g>
                        <path d="M17.2529542,16.2346463 C16.7824792,15.6359354 14.1015355,13.577801 14.6178573,11.268187 C14.9889977,10.9293735 15.2760857,10.5200615 15.474755,10.0391988 C15.7290954,9.42049581 15.9255815,7.38866681 17.3894029,7.24030436 C17.4996534,7.22872999 17.4887375,7.02144345 17.3828534,6.98882475 C15.5457083,6.43746359 15.8196973,4.85177416 15.8480786,4.42352227 C15.8557197,4.30567408 15.7804001,4.26148101 15.6690579,4.3204051 C14.1899543,5.79035078 12.2774896,4.26989874 10.4730922,4.18993033 C4.57632605,3.92582412 3.61681893,12.3856404 10.7077839,12.8475632 C11.0581841,13.1337659 11.1946328,13.7661477 11.1651599,14.4711324 L11.1651599,14.4711324 C11.159702,14.6100249 11.1476945,14.752074 11.1291375,14.8941232 L11.1302291,14.8941232 C11.1094889,15.0572166 11.0756496,15.2571377 11.0221617,15.4759986 L11.0210701,15.4759986 C10.8682476,16.0999627 10.6040829,16.6807859 10.2602323,17.0364348 C9.43499065,17.8666332 8.58027612,17.6235713 7.36970343,17.3173765 C6.04014749,17.0195994 4.81756732,16.6892036 3.45963006,16.6744726 C2.60054917,16.6744726 1.78731503,16.8175739 1.04175944,17.0806279 C1.59082893,18.2875196 2.34730042,19.3870853 3.2686019,20.3361841 C3.64956662,20.028937 4.08947716,19.780614 4.56868493,19.6069984 C5.39720131,19.3060647 6.21043544,19.33237 6.89813679,19.3986597 C6.9494415,19.4039207 7.00183779,19.4070774 7.05532567,19.410234 L7.05314249,19.4123385 C6.52917956,20.0815478 6.41565426,21.0159156 6.76605447,21.7945554 C6.80207692,21.8745238 6.89377043,21.9986853 6.98764713,22.0176252 C7.01602845,22.0228862 7.04331819,22.0249907 7.07060792,22.021834 C7.11863786,22.0165729 7.15466031,21.9376567 7.18959117,21.905038 C7.57273907,21.558859 8.09015246,21.4610029 8.44491903,21.4178621 C8.66978645,21.3905044 8.90338659,21.3757734 9.1304372,21.3610424 C9.84651987,21.3157971 10.5877091,21.2684474 11.1935412,20.818099 C11.4009432,20.6634232 11.5712312,20.4414057 11.7087715,20.1772995 C11.4304161,21.6356708 10.8409578,23.0466924 9.88145073,23.6822308 C9.82577967,23.7190583 9.76901702,23.7527293 9.71225437,23.7864002 C10.4545352,23.9252927 11.220831,24 12.0045922,24 C14.7815957,24 17.3391898,23.0835199 19.3717293,21.5472846 C19.4754303,19.8711046 18.8826973,18.0413011 17.2529542,16.2346463 Z" id="Path" fill="#000000"></path>
                        <path d="M11.2830516,8.64501265 C9.81813854,9.53623956 8.23642545,6.2596391 10.0779368,5.97659301 C11.2754104,6.02078608 12.1705138,7.78745666 11.2830516,8.64501265 Z" id="Path" fill="#FFFFFF"></path>
                        <path d="M10.2111107,6.48481331 C9.44699813,6.59003491 10.1565313,8.15257559 10.6422886,8.15257559 C11.5766891,8.20729082 11.1345954,6.42273257 10.2111107,6.48481331 Z" id="Path" fill="#000000"></path>
                        <path d="M7.14811077,7.61278881 C9.87162643,5.89346795 12.6660954,0.97330617 16.1941125,0.720774342 C15.6253944,0.355655408 14.5982087,0.693416728 14.0022009,0.912277645 C13.3799949,1.1732272 12.76543,1.45206443 12.1475904,1.72248393 C11.5242928,1.9844857 10.8922626,2.23806974 10.3410099,2.63159851 C10.3213613,2.64527731 10.3028043,2.65895612 10.2831556,2.67263493 C10.2722398,2.66106055 10.2613239,2.65053839 10.250408,2.64001623 C10.0462807,2.36959673 9.78539086,2.14442252 9.59436271,1.86348086 C9.42734952,1.61831455 9.2439625,1.38367039 9.04529322,1.16270504 C8.77348745,0.790220595 8.44273585,0.47455581 8.03993935,0.234650574 C6.84246573,-0.477699624 5.71376225,0.545054279 5.99539232,1.78456467 C4.92126832,1.02065589 3.78274053,1.86242865 3.66375728,3.00408295 C3.60590304,3.72379866 3.87115927,4.41510454 4.07965286,5.09483604 C4.2302922,5.52624458 4.43114466,5.93766102 4.60361579,6.36170405 C4.65601208,6.48691774 4.71823268,6.61002701 4.77390374,6.73418849 C4.56213539,6.81941798 4.34709227,6.89728196 4.12986597,6.96672822 C3.59826191,7.12561282 3.06993262,7.31816834 2.54815287,7.50967165 C2.06348716,7.6780262 1.58318781,7.87899944 1.18475766,8.19992531 C0.795060231,8.46824038 0.595299364,8.8459859 0.570192807,9.23741023 C0.58438347,9.23635802 4.43005307,9.32895302 7.14811077,7.61278881 Z M4.8088346,6.58056496 C4.81865891,6.55846843 4.83284957,6.53847632 4.85249818,6.52479752 C4.90598606,6.49849212 4.96274871,6.47534337 5.01841978,6.45324683 C5.10465534,6.41852371 5.19089091,6.38590501 5.27276012,6.34276416 C5.38519383,6.27857899 5.49653595,6.21123716 5.60460331,6.1407387 C5.8218296,5.99974176 6.03032319,5.84611823 6.23117564,5.68407697 C6.33160187,5.60305635 6.42984492,5.51993129 6.52590479,5.43470179 C6.65362076,5.3094881 6.78242831,5.1842744 6.91123587,5.06116513 C7.17103415,4.8149466 7.4351988,4.57398915 7.70700457,4.33934499 C7.84236166,4.22254902 7.97990193,4.10680527 8.11853379,3.99316594 C8.5508032,3.7195898 8.93831746,3.39340285 9.34111396,3.08299915 C9.52559257,2.94621107 9.73736093,2.84730278 9.92074795,2.70946249 C9.96441153,2.68000044 10.0222658,2.70420141 10.0517387,2.74208118 C10.0670209,2.76522993 10.0746621,2.78732647 10.0779368,2.80731857 C10.0833948,2.84519834 10.0670209,2.87781704 10.0397312,2.90622687 L10.0364564,2.91043573 C10.0146246,2.93253227 9.98515173,2.95252437 9.95349563,2.97041204 C9.93275544,2.98303863 9.90983206,2.99461301 9.88690868,3.00513517 C9.86507689,3.01670954 9.84215351,3.0272317 9.82141331,3.03880608 C9.78975722,3.05564153 9.76137589,3.07142477 9.74063569,3.08826023 C9.45900562,3.24819705 9.21339799,3.45443138 8.9645156,3.65435241 C8.8815548,3.72169423 8.79750242,3.78798383 8.71235844,3.85111679 C8.64577149,3.89425764 8.5824593,3.93950293 8.51696393,3.98474822 C8.42199565,4.04998561 8.32921055,4.11732743 8.23751703,4.18677368 C7.96352809,4.39406022 7.70045503,4.61607779 7.4450231,4.84546086 C7.16775938,5.10956707 6.89049567,5.38419543 6.59904129,5.64304055 C6.11437557,6.07444909 5.59259582,6.46376899 4.97257302,6.69420429 C4.97038984,6.70472644 4.96602348,6.7152486 4.95947395,6.72366633 C4.94746646,6.741554 4.93000103,6.75418059 4.90926083,6.75733724 C4.89943653,6.75944167 4.88852063,6.75838946 4.87651315,6.75523281 C4.80010189,6.73208406 4.78045328,6.64685457 4.8088346,6.58056496 Z" id="Shape" fill="#DBBFFF"></path>
                        <path d="M15.9790693,7.08878527 C15.8611777,6.88570759 15.6002878,6.80679139 15.3721456,6.88149872 C15.2509792,6.92148293 15.1352707,6.98145924 15.0523099,7.0445922 C14.8798388,7.17506697 14.7586724,7.35920477 14.6593377,7.54860364 C14.5458124,7.76536012 14.4573937,7.99369098 14.3962647,8.22833514 C14.3427768,8.43351725 14.3078459,8.6481693 14.198687,8.83230709 C14.089528,9.01644488 13.882126,9.16691177 13.6638081,9.1363975 C13.943255,9.21426148 14.2532664,9.29002103 14.5152479,9.16796398 C14.7379322,9.0637946 14.8700145,8.83967261 14.9671659,8.61975947 C15.0643174,8.39984634 15.1429118,8.16520218 15.309925,7.98948212 C15.4343662,7.85900734 15.5981046,7.7706212 15.7400113,7.65908631 C15.8830095,7.54755142 16.0107254,7.39603232 16.017275,7.21926004 C16.0194582,7.17717141 16.0041759,7.13192612 15.9790693,7.08878527 Z" id="Path" fill="#8724FF"></path>
                        <path d="M16.5881763,3.93634628 C17.7201545,3.47758013 19.0442525,3.53860865 20.1391167,4.08681316 C20.2733822,4.15415498 20.3028551,4.32566618 20.1947878,4.42773113 C19.7297707,4.8675574 18.9078038,6.01657721 18.5224727,6.3785395 C17.9613958,6.90675191 17.2867935,6.58161718 17.0881242,6.48586553 C16.2148527,6.06497915 16.1690059,5.1842744 16.1100601,4.71919495 C16.0674881,4.38459028 16.2661574,4.06682106 16.5881763,3.93634628 Z" id="Path" fill="#000000"></path>
                        <path d="M19.489621,20.0583991 C19.0704506,17.8350668 17.7736424,16.1851921 15.7520187,14.6237037 C14.2106945,15.1445506 12.5864094,15.4370666 10.9544832,15.487573 L10.8453242,15.6264655 C11.0581841,16.2556906 10.3595669,16.7649631 9.77447497,17.1111422 C9.18938303,17.4573212 8.92412679,17.534133 8.24624975,17.426807 C7.56837271,17.3194809 6.83591619,17.0701058 6.17222981,16.900699 C4.83066639,16.5576766 2.57107625,16.5755643 0.931508912,16.8312527 C2.71953241,21.0316988 7.00838733,23.9968434 12.002409,23.9968434 C14.8831135,23.9968434 17.5291264,23.0098648 19.5965967,21.3684079 C19.6042379,20.979088 19.5769481,20.5213741 19.489621,20.0583991 Z" id="Path" fill="#FF6C5C"></path>
                        <path d="M11.2044571,14.4942811 C12.5514785,14.6142337 13.7937073,14.2491148 14.8754724,13.4662661 C14.9289603,13.4273341 15.0053716,13.4389085 15.0424856,13.4915193 L15.9779778,14.8120503 C16.0161834,14.8657133 15.9998095,14.9404207 15.9419553,14.9740916 C14.137558,16.004211 11.630177,16.0599784 10.9752234,15.7569403 C10.9228271,15.7327393 10.8966289,15.6759196 10.9140943,15.6233088 C11.0101542,15.3213229 11.0581841,14.8204681 11.0756496,14.5963461 C11.0811075,14.5332131 11.1389618,14.4879678 11.2044571,14.4942811 Z" id="Path" fill="#DB4130"></path>
                        <path d="M11.7142294,20.2162314 C11.5766891,20.4792854 11.4064012,20.7023552 11.1989992,20.857031 C10.593167,21.3073794 9.85306941,21.3547291 9.13589514,21.3999744 C8.90993613,21.4147054 8.6752444,21.4294364 8.45037698,21.4567941 C8.09451882,21.4999349 7.57819701,21.5988432 7.19504912,21.94397 C7.15902667,21.9765887 7.12300422,22.0555049 7.07606587,22.060766 C7.04986772,22.0639227 7.0214864,22.0628704 6.99310507,22.0565571 C6.89922838,22.0376173 6.80753487,21.9134558 6.77151242,21.8334874 C6.42111221,21.0558998 6.53463751,20.1204798 7.05860044,19.4512705 L7.06078362,19.449166 C7.00729574,19.4460094 6.95489944,19.4418005 6.90359474,19.4375916 C6.21698498,19.3723543 5.40265926,19.3460489 4.57414287,19.6459304 C4.09493511,19.819546 3.65611615,20.0689212 3.27405985,20.3751161 C4.96165712,22.114429 7.19832389,23.3507828 9.71662073,23.8232277 C9.77338338,23.7895568 9.83014603,23.7558859 9.88581709,23.7190583 C10.8464158,23.0856243 11.4358741,21.6735505 11.7142294,20.2162314 Z" id="Path" fill="#FFFFFF"></path>
                        <path d="M14.7283257,14.0347826 C14.8331183,14.0432003 14.9193539,14.0905501 14.9652006,14.1757795 C14.9892156,14.270479 14.9979483,14.353604 15.0994661,14.4030582 C15.2675709,14.5040709 15.3636308,14.6776866 15.3068681,14.8755032 C15.3068681,14.8755032 15.2872195,14.8839209 15.2872195,14.8839209 C15.1889765,14.8323623 15.1300306,14.772386 15.0820007,14.7050442 C15.0394287,14.6313891 15.012139,14.5545773 15.0001315,14.4672434 C14.993582,14.4219981 14.9782997,14.3809617 14.9466436,14.3514996 C14.9160791,14.3220376 14.8614996,14.309411 14.8243856,14.2862622 C14.7872716,14.2631135 14.7665314,14.2273381 14.7468828,14.1894584 C14.7294173,14.1494741 14.7130435,14.1084377 14.7130435,14.0495136 L14.7283257,14.0347826 L14.7283257,14.0347826 Z" id="Path" fill="#FF6C5C"></path>
                        <path d="M14.4322871,14.1859818 C14.5272554,14.2154439 14.5960255,14.274368 14.6167657,14.3627541 C14.6145825,14.4553491 14.5993003,14.5290042 14.6866274,14.5942416 C14.8241677,14.7152465 14.8776556,14.8857054 14.7870537,15.0603733 C14.7870537,15.0603733 14.7663135,15.0656344 14.7663135,15.0656344 C14.6789863,15.0056581 14.6331396,14.9404207 14.6003919,14.8709744 C14.5741937,14.7952149 14.565461,14.7194553 14.5752853,14.6373825 C14.5796517,14.5942416 14.5752853,14.5542574 14.5523619,14.5216387 C14.5305302,14.48902 14.4814086,14.4669235 14.4519357,14.4385137 C14.4224628,14.4101038 14.4126385,14.3722241 14.4049974,14.3332921 C14.3995394,14.2933079 14.3962647,14.2512192 14.4137301,14.1975562 L14.4322871,14.1859818 L14.4322871,14.1859818 Z" id="Path" fill="#FF6C5C"></path>
                        <path d="M15.1221716,13.8240196 C15.2160483,13.840855 15.2880932,13.8839959 15.3186577,13.9650165 C15.3273904,14.0534026 15.3197493,14.1228489 15.4158092,14.1701986 C15.5686317,14.2575325 15.6483177,14.4006339 15.6002878,14.581615 C15.6002878,14.581615 15.5806392,14.591085 15.5806392,14.591085 C15.4834877,14.5563619 15.4245419,14.5048033 15.3797867,14.4469314 C15.3393979,14.381694 15.3175661,14.3101433 15.3142914,14.2301749 C15.3121082,14.1891385 15.3022839,14.1512587 15.2749942,14.1239011 C15.248796,14.0965435 15.1985829,14.0839169 15.1669268,14.0607681 C15.1341791,14.0376194 15.12108,14.0028963 15.1090726,13.9660687 C15.0992483,13.9281889 15.0926987,13.8882047 15.1047062,13.8345417 L15.1221716,13.8240196 L15.1221716,13.8240196 Z" id="Path" fill="#FF6C5C"></path>
                        <path d="M14.0491392,14.3690674 C14.1310084,14.4090516 14.1855879,14.4648191 14.1899543,14.5468919 C14.1713972,14.6289648 14.1441075,14.6910455 14.2237935,14.7552307 C14.3471431,14.8678178 14.3875319,15.0088147 14.3045711,15.1687515 C14.3045711,15.1687515 14.2838309,15.1750648 14.2838309,15.1750648 C14.1615729,15.1056186 14.1037187,15.0224935 14.1004439,14.9014887 C14.0862533,14.8341469 14.1408327,14.7457607 14.1015355,14.6826278 C14.0851617,14.6510613 14.0404065,14.6279125 14.0163915,14.5984505 C13.9923766,14.5689884 13.9901934,14.5332131 13.9901934,14.4963855 C13.9923766,14.4690279 14.0022009,14.3753807 14.0491392,14.3690674 L14.0491392,14.3690674 Z" id="Path" fill="#FF6C5C"></path>
                        <path d="M13.6266941,14.5258476 C13.7162044,14.5553096 13.7795166,14.6121293 13.7926157,14.6973588 C13.7827914,14.7836405 13.759868,14.8520345 13.8406456,14.9172719 C13.96727,15.0361723 14.004384,15.200318 13.8995915,15.356046 C13.8995915,15.356046 13.8777597,15.3592026 13.8777597,15.3592026 C13.765326,15.2708165 13.717296,15.1876914 13.7162044,15.0656344 C13.7031054,14.9982926 13.7565932,14.9067498 13.7140213,14.8425646 C13.6954642,14.8109981 13.6496175,14.7889016 13.6223277,14.761544 C13.5961296,14.7341864 13.5895801,14.698411 13.5852137,14.6615835 C13.5841221,14.6237037 13.5841221,14.5847717 13.6059539,14.5342653 C13.6070455,14.5353175 13.6266941,14.5258476 13.6266941,14.5258476 L13.6266941,14.5258476 Z" id="Path" fill="#FF6C5C"></path>
                        <path d="M13.228264,14.6247559 C13.30795,14.6857844 13.3537967,14.7604918 13.3494304,14.8520345 C13.3210491,14.9414729 13.289393,15.0130236 13.3603463,15.0972009 C13.4705968,15.2455633 13.496795,15.4128656 13.3952771,15.5843768 C13.3952771,15.5843768 13.3734454,15.5875335 13.3734454,15.5875335 C13.2577369,15.4854685 13.2107985,15.3781425 13.2206228,15.2424067 C13.2129817,15.1624382 13.2773855,15.0708955 13.2457294,14.9919793 C13.2326303,14.9530473 13.1911499,14.9183241 13.1693181,14.8814966 C13.1485779,14.8436168 13.1507611,14.8025804 13.1540359,14.7604918 C13.161677,14.7184031 13.1715013,14.6752623 13.2064322,14.6289648 L13.228264,14.6247559 L13.228264,14.6247559 Z" id="Path" fill="#FF6C5C"></path>
                        <path d="M12.7403235,14.7068287 C12.808002,14.7678573 12.8440245,14.8362513 12.8254675,14.9172719 C12.7839871,14.9930315 12.7403235,15.0456423 12.7992693,15.1298195 C12.8865965,15.2718687 12.8855049,15.4212834 12.7599721,15.5549148 C12.7599721,15.5549148 12.7381403,15.5549148 12.7381403,15.5549148 C12.6398972,15.4539021 12.6082412,15.3570982 12.6388057,15.2381978 C12.643172,15.1687515 12.7206749,15.0972009 12.7021178,15.024598 C12.6944767,14.9898748 12.6584543,14.9551517 12.6442636,14.9193764 C12.6300729,14.8846532 12.6377141,14.8488779 12.6475384,14.8131025 C12.6573627,14.7899538 12.6922935,14.7005154 12.7403235,14.7068287 L12.7403235,14.7068287 Z" id="Path" fill="#FF6C5C"></path>
                        <path d="M12.2589325,14.7257686 C12.332069,14.7889016 12.3713662,14.8636089 12.3582672,14.9519951 C12.3473513,14.9919793 12.3156952,15.0330157 12.3124204,15.0719477 C12.3080541,15.1108797 12.3233363,15.1487594 12.3462597,15.185587 C12.393198,15.2560855 12.417213,15.3328972 12.4226709,15.4128656 C12.4193962,15.4907296 12.3997476,15.570698 12.3364354,15.6527709 C12.3364354,15.6527709 12.3146036,15.6548753 12.3146036,15.6548753 C12.2381923,15.5833246 12.2065362,15.5075651 12.1901624,15.4307533 C12.1825213,15.3507849 12.1934372,15.2718687 12.2272764,15.1940047 C12.2447419,15.1540205 12.2534746,15.1140363 12.2425587,15.0761565 C12.2327344,15.0382768 12.1945288,15.0025014 12.1770633,14.9646216 C12.1595979,14.9267419 12.1661474,14.8878099 12.1737886,14.8478257 C12.1847045,14.8078415 12.1999867,14.7678573 12.2381923,14.7257686 L12.2589325,14.7257686 L12.2589325,14.7257686 Z" id="Path" fill="#FF6C5C"></path>
                        <path d="M11.8845174,14.7973193 C11.9456464,14.8604523 11.9762109,14.9298985 11.9489211,15.0056581 C11.9008912,15.0740521 11.8517697,15.1192974 11.9019828,15.2055791 C11.9751193,15.3486805 11.959837,15.4907296 11.8222968,15.6064734 C11.8222968,15.6064734 11.800465,15.6054212 11.800465,15.6054212 C11.7120462,15.5001996 11.6902144,15.4065523 11.7316948,15.2950175 C11.7426107,15.2297801 11.8266631,15.1676993 11.8146556,15.0972009 C11.8102893,15.0635299 11.7786332,15.0267024 11.7666257,14.9919793 C11.7557098,14.9572561 11.7666257,14.9246374 11.7808164,14.8909665 C11.7939154,14.8678178 11.8364874,14.7867971 11.8845174,14.7973193 L11.8845174,14.7973193 Z" id="Path" fill="#FF6C5C"></path>
                        <path d="M11.3922105,14.7268208 C11.4555227,14.7962671 11.483904,14.8762355 11.4533395,14.9583083 C11.4020348,15.0330157 11.3496385,15.0824698 11.3911189,15.1803259 C11.4478816,15.3444716 11.4096759,15.5075651 11.2459375,15.6117345 C11.2459375,15.6117345 11.2251973,15.6064734 11.2251973,15.6064734 C11.1771674,15.517035 11.1695263,15.4412755 11.1760758,15.3686726 C11.1913581,15.2939652 11.2219226,15.2255712 11.2732273,15.1634905 C11.2994254,15.1298195 11.3168908,15.0950964 11.3136161,15.0572166 C11.3125245,15.0193369 11.28196,14.9793527 11.2721357,14.9414729 C11.2623114,14.9035931 11.2743189,14.86887 11.2885095,14.8330947 C11.305975,14.7973193 11.3256236,14.7625962 11.3703787,14.7278731 C11.3703787,14.7257686 11.3922105,14.7268208 11.3922105,14.7268208 L11.3922105,14.7268208 Z" id="Path" fill="#FF6C5C"></path>
                        <path d="M9.5026692,8.01683973 C9.5026692,8.01683973 8.5202387,6.5437374 9.81595537,5.91240784 C10.6542961,5.50414805 11.4675302,6.85940219 11.4675302,6.85940219 L9.5026692,8.01683973 Z" id="Path" fill="#8724FF"></path>
                    </g>
                    <path d="M11,21.4942126 C10.8790731,21.6526471 10.729354,21.7869996 10.5470039,21.8801591 C10.0143496,22.151399 9.36364757,22.1799172 8.73310004,22.2071679 C8.53443438,22.2160402 8.32809082,22.2249126 8.1303849,22.2413898 C7.81751047,22.267373 7.36355464,22.3269444 7.02668678,22.5348105 C6.99501544,22.5544564 6.96334411,22.6019867 6.92207539,22.6051554 C6.89904169,22.6070566 6.87408852,22.6064229 6.84913534,22.6026205 C6.76659792,22.5912132 6.68597997,22.5164321 6.65430863,22.468268 C6.3462329,21.9999356 6.4460456,21.4365424 6.90671959,21.033485 C6.86161193,21.0303163 6.81554453,21.0277814 6.77043687,21.0252464 C6.16676199,20.9859547 5.45079782,20.9701112 4.72235706,21.1507266 C4.3010323,21.2552933 4.33590812,20.9077566 4,21.0921744 C5.48375416,22.1397434 7.02956599,22.7154516 9.24368039,23 C9.29358674,22.9797204 9.34349309,22.9594408 9.3924397,22.9372599 C10.2370087,22.5557496 10.7552669,22.3725735 11,21.4942126 Z" id="Path" fill="#FFFFFF"></path>
                </g>
            </g>
        </g>
    </g>
</svg>