<?xml version="1.0" encoding="UTF-8"?>
<svg width="15px" height="15px" viewBox="0 0 15 15" version="1.1" xmlns="http://www.w3.org/2000/svg" xmlns:xlink="http://www.w3.org/1999/xlink">
    <title>072C7922-EAB1-4DE5-BB1E-3772C05FF855@1.5x</title>
    <g id="Page-1" stroke="none" stroke-width="1" fill="none" fill-rule="evenodd">
        <g id="Main-Menu" transform="translate(-151, -599)" fill="#D2FF40" fill-rule="nonzero">
            <g id="Level-Up-Journey" transform="translate(20, 243)">
                <path d="M138.5,356 C134.364662,356 131,359.364662 131,363.5 C131,367.635338 134.364662,371 138.5,371 C142.635338,371 146,367.635338 146,363.5 C146,359.364662 142.635338,356 138.5,356 Z M142.691729,361.526316 L137.898496,366.281955 C137.616541,366.56391 137.165414,366.582707 136.864662,366.300752 L134.327068,363.988722 C134.026316,363.706767 134.007519,363.236842 134.270677,362.93609 C134.552632,362.635338 135.022556,362.616541 135.323308,362.898496 L137.334586,364.740602 L141.620301,360.454887 C141.921053,360.154135 142.390977,360.154135 142.691729,360.454887 C142.992481,360.755639 142.992481,361.225564 142.691729,361.526316 Z" id="Shape-Copy-6"></path>
            </g>
        </g>
    </g>
</svg>