<?xml version="1.0" encoding="UTF-8"?>
<svg width="21.0666667px" height="14px" viewBox="0 0 21.0666667 14" version="1.1" xmlns="http://www.w3.org/2000/svg" xmlns:xlink="http://www.w3.org/1999/xlink">
    <title>Down Arrow</title>
    <g id="Page-1" stroke="none" stroke-width="1" fill="none" fill-rule="evenodd">
        <g id="Learn-5" transform="translate(-133, -740.0026)">
            <g id="Group-23" transform="translate(0, 630.0026)">
                <g id="Group-12" transform="translate(27, 23)">
                    <g id="Group-13" transform="translate(0, 52)">
                        <g id="Group-17" transform="translate(23, 33)">
                            <g id="Down-Arrow" transform="translate(83, 2)">
                                <path d="M4.56896552,10.17119 L2.84482759,12.5093946 L2.84482759,3.63797881e-12 L2.15517241,3.63797881e-12 L2.15517241,12.5093946 L0.431034483,10.17119 L0,10.8726514 L2.24137931,13.9123173 C2.4137931,14.0292276 2.5862069,14.0292276 2.75862069,13.9123173 L5,10.8726514 L4.56896552,10.17119 Z" id="Path_00000113325765675955074690000015012650817494824589_" fill="#4E4E4E" fill-rule="nonzero"></path>
                                <line x1="7.33333333" y1="1.3" x2="20.6666667" y2="1.3" id="Line-3" stroke="#4E4E4E" stroke-width="0.8" stroke-linecap="square"></line>
                                <line x1="7.33333333" y1="3.9" x2="18" y2="3.9" id="Line-3-Copy" stroke="#4E4E4E" stroke-width="0.8" stroke-linecap="square"></line>
                                <line x1="7.33333333" y1="6.5" x2="15.3333333" y2="6.5" id="Line-3-Copy-2" stroke="#4E4E4E" stroke-width="0.8" stroke-linecap="square"></line>
                                <line x1="7.33333333" y1="9.1" x2="12.6666667" y2="9.1" id="Line-3-Copy-3" stroke="#4E4E4E" stroke-width="0.8" stroke-linecap="square"></line>
                                <line x1="7.33333333" y1="11.7" x2="10" y2="11.7" id="Line-3-Copy-4" stroke="#4E4E4E" stroke-width="0.8" stroke-linecap="square"></line>
                            </g>
                        </g>
                    </g>
                </g>
            </g>
        </g>
    </g>
</svg>