<?xml version="1.0" encoding="UTF-8"?>
<svg width="15px" height="15px" viewBox="0 0 15 15" version="1.1" xmlns="http://www.w3.org/2000/svg" xmlns:xlink="http://www.w3.org/1999/xlink">
    <title>Arrow</title>
    <g id="Page-1" stroke="none" stroke-width="1" fill="none" fill-rule="evenodd">
        <g id="Main-Menu" transform="translate(-151, -274)">
            <g id="Level-Up-Journey" transform="translate(20, 243)">
                <g id="Arrow" transform="translate(131, 31)">
                    <rect id="Rectangle" fill="#D2FF40" x="0" y="0" width="15" height="15" rx="7.5"></rect>
                    <path d="M8.13194157,3.7231597 L10.9727638,6.03959591 C11.4007894,6.38861245 11.4648389,7.01852955 11.1158223,7.44655514 C10.9259116,7.67945718 10.6413288,7.81460479 10.3408135,7.81460479 L8.33916897,7.81416857 L8.33936055,10.7736227 C8.33936055,11.1747898 8.01415035,11.5 7.61298325,11.5 C7.21181614,11.5 6.88660594,11.1747898 6.88660594,10.7736227 L6.88616897,7.81416857 L4.65916897,7.81460479 C4.10688422,7.81460479 3.65916897,7.36688954 3.65916897,6.81460479 C3.65916897,6.51408946 3.79431657,6.22950668 4.02721862,6.03959591 L6.86804087,3.7231597 C7.23593922,3.42317153 7.76404322,3.42317153 8.13194157,3.7231597 Z" id="Combined-Shape" fill="#000000"></path>
                </g>
            </g>
        </g>
    </g>
</svg>