<?xml version="1.0" encoding="UTF-8"?>
<svg width="9px" height="15px" viewBox="0 0 9 15" version="1.1" xmlns="http://www.w3.org/2000/svg" xmlns:xlink="http://www.w3.org/1999/xlink">
    <title>Path@2x</title>
    <g id="Page-1" stroke="none" stroke-width="1" fill="none" fill-rule="evenodd">
        <g id="9C-Contest-detail---Winners(Completed)" transform="translate(-45.000000, -255.000000)" fill="#8A8C92" fill-rule="nonzero">
            <g id="Completed" transform="translate(20.000000, 146.000000)">
                <g id="Group-11" transform="translate(15.000000, 99.000000)">
                    <g id="Group-10" transform="translate(10.000000, 10.000000)">
                        <g id="flash" transform="translate(-0.000000, 0.000000)">
                            <path d="M1.15041886,14.954529 C1.34362059,15.0469022 1.57069263,14.9942849 1.70149381,14.8352319 L8.90155847,6.01685658 C9.00967944,5.88466885 9.03031963,5.70399469 8.95561896,5.55165066 C8.88046828,5.3997168 8.72314687,5.30274396 8.54998531,5.30274396 L5.67811952,5.30274396 L8.05252085,0.63600701 C8.12239147,0.499952076 8.11492141,0.33817444 8.03275067,0.20856483 C7.95057993,0.0789552209 7.80600863,0 7.65000723,0 L2.24995873,0 C2.04340688,0 1.86367526,0.137343998 1.81357481,0.33301818 L0.013558646,7.39357782 C-0.020281658,7.52488666 0.0100486144,7.66395917 0.0953093802,7.77036561 C0.180570146,7.87721151 0.311521322,7.93943819 0.449942565,7.93943819 L2.57339164,7.93943819 L0.913566729,14.4541082 C0.862146267,14.6545578 0.960577151,14.8627124 1.15041886,14.954529 Z" id="Path"></path>
                        </g>
                    </g>
                </g>
            </g>
        </g>
    </g>
</svg>