<?xml version="1.0" encoding="UTF-8"?>
<svg width="72px" height="78px" viewBox="0 0 72 78" version="1.1" xmlns="http://www.w3.org/2000/svg" xmlns:xlink="http://www.w3.org/1999/xlink">
    <title>C30E7673-3866-4FC7-BD66-36A17D54C90D@1.5x</title>
    <g id="2nd-level" stroke="none" stroke-width="1" fill="none" fill-rule="evenodd">
        <g id="12" transform="translate(-163.000000, -643.000000)" fill-rule="nonzero">
            <g id="Group-Copy" transform="translate(198.751469, 681.694469) scale(1, -1) translate(-198.751469, -681.694469) translate(163.000000, 643.000000)">
                <path d="M30.7412546,26.6435837 C35.5312546,26.6835837 45.1212546,32.7435837 48.1112546,36.3435837 C55.6712546,44.4235837 65.2512546,58.5535837 71.3112546,68.5835837 C71.8112546,69.4135837 71.2812546,70.4935837 70.3212546,70.6035837 C70.1712546,70.6235837 70.0212546,70.6335837 69.8612546,70.6535837 C69.3612546,70.7135837 68.8812546,70.5035837 68.5912546,70.0835837 C59.3412546,56.4335837 47.7512546,33.3035837 31.0012546,29.0035837 C30.7812546,28.9435837 30.5512546,29.1535837 30.6212546,29.3735837 C31.4412546,32.0635837 35.2812546,33.0235837 37.3712546,34.6635837 C40.5612546,37.1035837 43.7312546,39.7635837 46.0512546,43.0835837 C46.7912546,43.9435837 46.4912546,45.3235837 45.3612546,45.6335837 C42.9312546,45.5235837 40.8312546,43.2935837 38.3812546,42.9035837 C37.3412546,42.7435837 36.5312546,43.6935837 36.8612546,44.6935837 C37.4412546,46.4535837 39.4312546,47.7435837 40.8112546,48.9535837 C42.2312546,49.8335837 40.8812546,51.8735837 39.4612546,51.3435837 C33.9612546,48.8335837 31.6912546,50.6035837 36.7912546,54.9835837 C38.1412546,55.6535837 38.2312546,57.2135837 36.7212546,57.7335837 C35.3912546,57.8735837 33.7712546,57.3635837 32.5212546,57.9535837 C32.2212546,58.0935837 32.1112546,58.4835837 32.3012546,58.7535837 C34.6112546,62.0135837 38.1112546,61.7035837 39.8212546,65.5535837 C41.6212546,68.5035837 43.9012546,72.1435837 45.7212546,75.2635837 C46.0512546,75.8335837 45.9512546,76.5535837 45.4612546,76.9935837 C45.4512546,77.0035837 45.4512546,77.0035837 45.4412546,77.0135837 C44.7612546,77.6235837 43.7112546,77.4735837 43.2612546,76.6835837 C41.5712546,73.7135837 37.9812546,67.5135837 36.6612546,65.5735837 C36.3612546,65.1235837 35.9512546,64.7635837 35.4812546,64.4935837 C28.5012546,60.5335837 28.1312546,56.5235837 33.2112546,55.3035837 C30.2612546,52.3935837 31.0312546,47.8035837 35.6612546,47.7735837 C32.5112546,44.0535837 35.0712546,39.0835837 40.0612546,40.6835837 C37.1612546,37.3435837 32.7612546,35.8435837 29.6612546,32.7635837 C27.3512546,31.0635837 27.6212546,27.1335837 30.7412546,26.6435837 Z" id="Path" fill="#FFFFFF"></path>
                <path d="M27.6312546,36.1635837 C24.1012546,37.1035837 20.2712546,34.9935837 18.8612546,31.6735837 C17.2812546,27.9435837 18.5912546,23.5035837 21.3712546,20.7135837 C26.6912546,15.3735837 39.1812546,14.3535837 42.0012546,22.9235837 C42.6012546,24.7535837 45.5012546,23.9635837 44.8912546,22.1235837 C42.0612546,13.5335837 31.5512546,11.9735837 24.1512546,15.2435837 C20.4712546,16.8735837 17.4812546,19.8035837 16.0412546,23.5835837 C14.6612546,27.2235837 14.9212546,31.6735837 17.2712546,34.8735837 C19.8112546,38.3235837 24.2312546,40.1635837 28.4312546,39.0435837 C30.2912546,38.5635837 29.5012546,35.6735837 27.6312546,36.1635837 L27.6312546,36.1635837 Z" id="Path" fill="#D1FF34"></path>
                <path d="M20.0612546,41.3935837 C17.2412546,41.0035837 14.5812546,39.5835837 12.8912546,37.2635837 C11.0812546,34.7735837 10.4712546,31.5535837 11.2212546,28.5835837 C11.6912546,26.7135837 8.80125462,25.9135837 8.33125462,27.7835837 C7.40125462,31.5035837 8.05125462,35.6435837 10.3012546,38.7835837 C12.4112546,41.7235837 15.6612546,43.7935837 19.2612546,44.2935837 C20.0612546,44.4035837 20.8712546,44.1035837 21.1112546,43.2435837 C21.3012546,42.5335837 20.8712546,41.5035837 20.0612546,41.3935837 L20.0612546,41.3935837 Z" id="Path" fill="#D1FF34"></path>
                <path d="M27.6712546,9.83358373 C32.9712546,8.32358373 38.9412546,9.47358373 43.2112546,13.0035837 C43.8312546,13.5235837 44.7212546,13.6135837 45.3312546,13.0035837 C45.8612546,12.4735837 45.9612546,11.4035837 45.3312546,10.8835837 C40.2312546,6.66358373 33.2712546,5.12358373 26.8812546,6.94358373 C25.0212546,7.47358373 25.8112546,10.3635837 27.6712546,9.83358373 L27.6712546,9.83358373 Z" id="Path" fill="#D1FF34"></path>
                <path d="M3.66125462,36.7935837 C2.04125462,29.6235837 3.44125462,21.9535837 7.31125462,15.7335837 C11.2312546,9.43358373 17.6812546,5.16358373 24.9012546,3.60358373 C29.0112546,2.71358373 33.2812546,2.77358373 37.3612546,3.77358373 C39.2312546,4.23358373 40.0312546,1.34358373 38.1612546,0.88358373 C30.1912546,-1.07641627 21.5712546,0.26358373 14.5512546,4.51358373 C7.51125462,8.77358373 2.55125462,15.9135837 0.761254618,23.9235837 C-0.248745382,28.4335837 -0.258745382,33.0935837 0.761254618,37.6035837 C1.19125462,39.4735837 4.09125462,38.6735837 3.66125462,36.7935837 L3.66125462,36.7935837 Z" id="Path" fill="#D1FF34"></path>
            </g>
        </g>
    </g>
</svg>