<?xml version="1.0" encoding="UTF-8"?>
<svg width="23px" height="23px" viewBox="0 0 23 23" version="1.1" xmlns="http://www.w3.org/2000/svg" xmlns:xlink="http://www.w3.org/1999/xlink">
    <title>Group 4</title>
    <g id="Page-1" stroke="none" stroke-width="1" fill="none" fill-rule="evenodd">
        <g id="6" transform="translate(-305, -445)">
            <g id="Group-3" transform="translate(21, 426)">
                <g id="Group-4" transform="translate(284, 19)">
                    <path d="M11.9447009,11.8710337 L15.4114381,8.40411899 C15.6370475,8.17861056 15.6370475,7.81399459 15.4114381,7.58848616 C15.1859344,7.36297773 14.821326,7.36297773 14.5958222,7.58848616 L11.1289794,11.0554009 L7.66224227,7.58848616 C7.43663291,7.36297773 7.07213013,7.36297773 6.84662638,7.58848616 C6.62101701,7.81399459 6.62101701,8.17861056 6.84662638,8.40411899 L10.3133636,11.8710337 L6.84662638,15.3379485 C6.62101701,15.563457 6.62101701,15.9280729 6.84662638,16.1535814 C6.95900857,16.2660715 7.10677426,16.3225806 7.25443434,16.3225806 C7.40209439,16.3225806 7.54975447,16.2660715 7.66224227,16.1535814 L11.1289794,12.6866666 L14.5958222,16.1535814 C14.7083101,16.2660715 14.8559701,16.3225806 15.0036302,16.3225806 C15.1512903,16.3225806 15.2989503,16.2660715 15.4114381,16.1535814 C15.6370475,15.9280729 15.6370475,15.563457 15.4114381,15.3379485 L11.9447009,11.8710337 Z" id="Path" fill="#211F1F" fill-rule="nonzero"></path>
                    <circle id="Oval" stroke="#000000" cx="11.5" cy="11.5" r="11"></circle>
                </g>
            </g>
        </g>
    </g>
</svg>