<?xml version="1.0" encoding="UTF-8"?>
<svg width="18.2px" height="26px" viewBox="0 0 18.2 26" version="1.1" xmlns="http://www.w3.org/2000/svg" xmlns:xlink="http://www.w3.org/1999/xlink">
    <title>Path@2x</title>
    <g id="Page-1" stroke="none" stroke-width="1" fill="none" fill-rule="evenodd">
        <g id="Add-cash-wallet-screen-back" transform="translate(-161.000000, -159.000000)" fill="#D2FF40" fill-rule="nonzero">
            <g id="Group-93" transform="translate(161.000000, 159.000000)">
                <path d="M16.6833965,5.77777778 L15.0120995,5.77777778 C14.784609,4.70311111 14.2810966,3.73244444 13.6107579,2.88888889 L16.6833965,2.88888889 C17.5205616,2.88888889 18.2,2.24177778 18.2,1.44444444 C18.2,0.647111111 17.5205616,0 16.6833965,0 L7.58377568,0 L1.51736178,0 C0.680196658,0 0.000758301737,0.647111111 0.000758301737,1.44444444 C0.000758301737,2.24177778 0.680196658,2.88888889 1.51736178,2.88888889 L7.58377568,2.88888889 C9.5583934,2.88888889 11.2266572,4.09933333 11.8545311,5.77777778 L1.51736178,5.77777778 C0.680196658,5.77777778 0.000758301737,6.42488889 0.000758301737,7.22222222 C0.000758301737,8.01955556 0.680196658,8.66666667 1.51736178,8.66666667 L11.8545311,8.66666667 C11.2266572,10.3451111 9.5583934,11.5555556 7.58377568,11.5555556 L1.51736178,11.5555556 C1.32020332,11.5555556 1.12304487,11.5931111 0.938019249,11.6653333 C0.567968001,11.8126667 0.27071372,12.0928889 0.116020166,12.4482222 C-0.0386733886,12.8006667 -0.0386733886,13.1993333 0.116020166,13.5517778 C0.19185034,13.7308889 0.304078997,13.8897778 0.446639723,14.0226667 L12.5764343,25.5753333 C12.8736886,25.8584444 13.2619391,26 13.6501896,26 C14.0384401,26 14.4266906,25.8584444 14.7239448,25.5782222 C15.3154202,25.0148889 15.3154202,24.0991111 14.7239448,23.5357778 L5.17844256,14.4444444 L7.58377568,14.4444444 C11.2478897,14.4444444 14.3083955,11.96 15.0120995,8.66666667 L16.6833965,8.66666667 C17.5205616,8.66666667 18.2,8.01955556 18.2,7.22222222 C18.2,6.42488889 17.5205616,5.77777778 16.6833965,5.77777778 Z" id="Path"></path>
            </g>
        </g>
    </g>
</svg>