<?xml version="1.0" encoding="UTF-8"?>
<svg width="13px" height="15px" viewBox="0 0 13 15" version="1.1" xmlns="http://www.w3.org/2000/svg" xmlns:xlink="http://www.w3.org/1999/xlink">
    <title>Group 2@2x</title>
    <g id="Page-1" stroke="none" stroke-width="1" fill="none" fill-rule="evenodd">
        <g id="9C-Contest-detail---Winners(Completed)" transform="translate(-263.000000, -255.000000)" fill="#8A8C92" fill-rule="nonzero">
            <g id="Completed" transform="translate(20.000000, 146.000000)">
                <g id="Group-11" transform="translate(15.000000, 99.000000)">
                    <g id="Group-2" transform="translate(228.000000, 10.000000)">
                        <path d="M0.841060108,6.1852494 L5.41684902,6.33782609 C5.7411776,6.34863281 6.02821166,6.5534515 6.14742313,6.85914134 C6.26663459,7.16483118 6.19526437,7.51303179 5.96576789,7.74539976 L5.00796357,8.71550506 L8.6254935,12.3794945 C8.67527395,12.4298515 8.70324553,12.498188 8.70324553,12.5694479 C8.70324553,12.6407079 8.67527395,12.7090443 8.6254935,12.7594013 L6.49104475,14.9212625 C6.44135218,14.971673 6.37390734,15 6.30357577,15 C6.23324421,15 6.16579937,14.971673 6.1161068,14.9212625 L2.49857686,11.2571195 L1.54062099,12.2272249 C1.31118647,12.4595634 0.967468269,12.5317831 0.665718854,12.4110532 C0.36396944,12.2903232 0.161772998,11.9996831 0.151046962,11.6712563 L0.000404953135,7.036701 C-0.00668036785,6.80876864 0.0794701429,6.58798805 0.238492072,6.42654774 C0.398187606,6.26583835 0.616035098,6.17860133 0.841060108,6.1852494 Z" id="Shape"></path>
                        <path d="M6.50892781,0.0755814776 C6.61410436,-0.0251938259 6.77868922,-0.0251938259 6.88386577,0.0755814776 L10.500941,3.73972446 L11.4593516,2.76977265 C11.6887861,2.53743406 12.0325043,2.46521439 12.3342537,2.58594434 C12.6360031,2.70667428 12.8381996,2.9973144 12.8489256,3.32574123 L12.9995676,7.9602965 C13.0067512,8.18364966 12.9241733,8.40040071 12.7707217,8.56097298 C12.61727,8.72154525 12.4060719,8.8122086 12.1854339,8.8122086 L12.1589125,8.8122086 L7.58312354,8.65963191 C7.25771777,8.65164969 6.96923988,8.44554565 6.8526462,8.13773982 C6.73032822,7.83233294 6.80202174,7.482354 7.03420467,7.25144425 L7.992009,6.28133895 L4.37447906,2.61734946 C4.32469861,2.56699247 4.29672703,2.49865604 4.29672703,2.42739609 C4.29672703,2.35613614 4.32469861,2.28779971 4.37447906,2.23744272 L6.50892781,0.0755814776 Z" id="Shape"></path>
                    </g>
                </g>
            </g>
        </g>
    </g>
</svg>